<svg width="20" height="20" viewBox="0 0 20 20" fill="none" xmlns="http://www.w3.org/2000/svg">
<rect width="20" height="20" fill="white"/>
<path fill-rule="evenodd" clip-rule="evenodd" d="M9.99984 18.3334C14.6022 18.3334 18.3332 14.6024 18.3332 10C18.3332 5.39765 14.6022 1.66669 9.99984 1.66669C5.39746 1.66669 1.6665 5.39765 1.6665 10C1.6665 14.6024 5.39746 18.3334 9.99984 18.3334ZM13.8265 7.88376C14.0384 7.6113 13.9894 7.21862 13.7169 7.0067C13.4444 6.79479 13.0518 6.84387 12.8398 7.11634L9.50066 11.4096C9.42641 11.505 9.28674 11.5174 9.19685 11.4365L7.08461 9.53549C6.82804 9.30458 6.43286 9.32538 6.20195 9.58195C5.97104 9.83852 5.99184 10.2337 6.24841 10.4646L8.36064 12.3656C8.98992 12.932 9.96759 12.8452 10.4874 12.177L13.8265 7.88376Z" fill="#3FC797"/>
</svg>
