<svg width="18" height="19" viewBox="0 0 18 19" fill="none" xmlns="http://www.w3.org/2000/svg">
<g filter="url(#filter0_di_272_4402)">
<path d="M12.143 1.92188H5.85799C3.12799 1.92188 1.50049 3.54937 1.50049 6.27937V12.5569C1.50049 15.2944 3.12799 16.9219 5.85799 16.9219H12.1355C14.8655 16.9219 16.493 15.2944 16.493 12.5644V6.27937C16.5005 3.54937 14.873 1.92188 12.143 1.92188ZM12.5855 7.69687L8.33299 11.9494C8.22799 12.0544 8.08549 12.1144 7.93549 12.1144C7.78549 12.1144 7.64299 12.0544 7.53799 11.9494L5.41549 9.82687C5.19799 9.60937 5.19799 9.24937 5.41549 9.03187C5.63299 8.81437 5.99299 8.81437 6.21049 9.03187L7.93549 10.7569L11.7905 6.90187C12.008 6.68437 12.368 6.68437 12.5855 6.90187C12.803 7.11937 12.803 7.47187 12.5855 7.69687Z" fill="#40B93C"/>
</g>
<defs>
<filter id="filter0_di_272_4402" x="0.500488" y="0.921875" width="16.9927" height="17" filterUnits="userSpaceOnUse" color-interpolation-filters="sRGB">
<feFlood flood-opacity="0" result="BackgroundImageFix"/>
<feColorMatrix in="SourceAlpha" type="matrix" values="0 0 0 0 0 0 0 0 0 0 0 0 0 0 0 0 0 0 127 0" result="hardAlpha"/>
<feMorphology radius="1" operator="dilate" in="SourceAlpha" result="effect1_dropShadow_272_4402"/>
<feOffset/>
<feComposite in2="hardAlpha" operator="out"/>
<feColorMatrix type="matrix" values="0 0 0 0 0.25098 0 0 0 0 0.72549 0 0 0 0 0.235294 0 0 0 1 0"/>
<feBlend mode="normal" in2="BackgroundImageFix" result="effect1_dropShadow_272_4402"/>
<feBlend mode="normal" in="SourceGraphic" in2="effect1_dropShadow_272_4402" result="shape"/>
<feColorMatrix in="SourceAlpha" type="matrix" values="0 0 0 0 0 0 0 0 0 0 0 0 0 0 0 0 0 0 127 0" result="hardAlpha"/>
<feMorphology radius="1" operator="erode" in="SourceAlpha" result="effect2_innerShadow_272_4402"/>
<feOffset dy="-1"/>
<feComposite in2="hardAlpha" operator="arithmetic" k2="-1" k3="1"/>
<feColorMatrix type="matrix" values="0 0 0 0 0.25098 0 0 0 0 0.72549 0 0 0 0 0.235294 0 0 0 1 0"/>
<feBlend mode="normal" in2="shape" result="effect2_innerShadow_272_4402"/>
</filter>
</defs>
</svg>
