<svg width="40" height="40" viewBox="0 0 40 40" fill="none" xmlns="http://www.w3.org/2000/svg">
<circle cx="20" cy="20" r="18" fill="#6667FA" stroke="#F9FBFC" stroke-width="4"/>
<path d="M26.75 27.5H13.25C12.9425 27.5 12.6875 27.245 12.6875 26.9375C12.6875 26.63 12.9425 26.375 13.25 26.375H26.75C27.0575 26.375 27.3125 26.63 27.3125 26.9375C27.3125 27.245 27.0575 27.5 26.75 27.5Z" fill="white"/>
<path d="M25.2649 13.6102C23.8099 12.1552 22.3849 12.1177 20.8924 13.6102L19.9849 14.5177C19.9099 14.5927 19.8799 14.7127 19.9099 14.8177C20.4799 16.8052 22.0699 18.3952 24.0574 18.9652C24.0874 18.9727 24.1174 18.9802 24.1474 18.9802C24.2299 18.9802 24.3049 18.9502 24.3649 18.8902L25.2649 17.9827C26.0074 17.2477 26.3674 16.5352 26.3674 15.8152C26.3749 15.0727 26.0149 14.3527 25.2649 13.6102Z" fill="white"/>
<path d="M22.7072 19.6476C22.4897 19.5426 22.2797 19.4376 22.0773 19.3176C21.9123 19.2201 21.7548 19.1151 21.5972 19.0026C21.4697 18.9201 21.3197 18.8001 21.1772 18.6801C21.1622 18.6726 21.1097 18.6276 21.0497 18.5676C20.8022 18.3576 20.5247 18.0876 20.2772 17.7876C20.2547 17.7726 20.2173 17.7201 20.1648 17.6526C20.0898 17.5626 19.9623 17.4126 19.8498 17.2401C19.7598 17.1276 19.6547 16.9626 19.5573 16.7976C19.4373 16.5951 19.3323 16.3926 19.2273 16.1826C19.0896 15.8876 18.7024 15.8 18.4722 16.0302L14.2548 20.2476C14.1573 20.3451 14.0673 20.5326 14.0448 20.6601L13.6398 23.5326C13.5648 24.0426 13.7073 24.5226 14.0223 24.8451C14.2923 25.1076 14.6673 25.2501 15.0723 25.2501C15.1623 25.2501 15.2523 25.2426 15.3423 25.2276L18.2223 24.8226C18.3573 24.8001 18.5448 24.7101 18.6348 24.6126L22.8592 20.3882C23.0847 20.1626 23 19.7744 22.7072 19.6476Z" fill="white"/>
</svg>
