<svg width="64" height="43" viewBox="0 0 64 43" fill="none" xmlns="http://www.w3.org/2000/svg">
<path d="M16.128 40V31.48H17.244V35.116H21.912V31.48H23.028V40H21.912V36.16H17.244V40H16.128ZM27.6829 40.12C26.7789 40.12 26.0269 39.82 25.4269 39.22C24.8349 38.612 24.5389 37.872 24.5389 37C24.5389 36.128 24.8349 35.392 25.4269 34.792C26.0269 34.184 26.7789 33.88 27.6829 33.88C28.5789 33.88 29.3229 34.184 29.9149 34.792C30.5149 35.392 30.8149 36.128 30.8149 37C30.8149 37.872 30.5149 38.612 29.9149 39.22C29.3229 39.82 28.5789 40.12 27.6829 40.12ZM26.1709 38.536C26.5629 38.952 27.0669 39.16 27.6829 39.16C28.2989 39.16 28.7989 38.952 29.1829 38.536C29.5669 38.12 29.7589 37.608 29.7589 37C29.7589 36.392 29.5669 35.88 29.1829 35.464C28.7989 35.048 28.2989 34.84 27.6829 34.84C27.0669 34.84 26.5629 35.048 26.1709 35.464C25.7869 35.88 25.5949 36.392 25.5949 37C25.5949 37.608 25.7869 38.12 26.1709 38.536ZM40.0242 40V36.472C40.0242 35.976 39.9202 35.58 39.7122 35.284C39.5122 34.98 39.2202 34.828 38.8362 34.828C38.3562 34.828 37.9642 35.016 37.6602 35.392C37.3642 35.768 37.2082 36.28 37.1922 36.928V40H36.1602V36.472C36.1602 35.968 36.0562 35.568 35.8482 35.272C35.6482 34.976 35.3602 34.828 34.9842 34.828C34.4882 34.828 34.0882 35.028 33.7842 35.428C33.4802 35.82 33.3282 36.352 33.3282 37.024V40H32.2962V34H33.3282V34.924C33.7122 34.228 34.3162 33.88 35.1402 33.88C36.0522 33.88 36.6682 34.308 36.9882 35.164C37.1482 34.772 37.4042 34.46 37.7562 34.228C38.1082 33.996 38.5082 33.88 38.9562 33.88C39.6042 33.88 40.1162 34.1 40.4922 34.54C40.8682 34.98 41.0562 35.572 41.0562 36.316V40H40.0242ZM45.4694 40.12C44.5974 40.12 43.8734 39.824 43.2974 39.232C42.7294 38.64 42.4454 37.896 42.4454 37C42.4454 36.096 42.7214 35.352 43.2734 34.768C43.8334 34.176 44.5734 33.88 45.4934 33.88C46.4214 33.88 47.1494 34.208 47.6774 34.864C48.2054 35.52 48.4374 36.324 48.3734 37.276H43.4894C43.5054 37.82 43.7054 38.276 44.0894 38.644C44.4734 39.004 44.9374 39.184 45.4814 39.184C46.2974 39.184 46.8774 38.848 47.2214 38.176H48.2774C48.1254 38.736 47.8014 39.2 47.3054 39.568C46.8094 39.936 46.1974 40.12 45.4694 40.12ZM46.6454 35.224C46.3174 34.936 45.9214 34.792 45.4574 34.792C44.9934 34.792 44.5774 34.932 44.2094 35.212C43.8494 35.492 43.6254 35.908 43.5374 36.46H47.2814C47.1854 35.916 46.9734 35.504 46.6454 35.224Z" fill="#6667FA" fill-opacity="0.7"/>
<path d="M22 2C22 0.895431 22.8954 0 24 0H28C29.1046 0 30 0.895431 30 2V6C30 7.10457 29.1046 8 28 8H24C22.8954 8 22 7.10457 22 6V2Z" fill="#6667FA"/>
<path d="M42 4C42 6.20914 40.2091 8 38 8C35.7909 8 34 6.20914 34 4C34 1.79086 35.7909 0 38 0C40.2091 0 42 1.79086 42 4Z" fill="#6667FA"/>
<path d="M30 16C30 18.2091 28.2091 20 26 20C23.7909 20 22 18.2091 22 16C22 13.7909 23.7909 12 26 12C28.2091 12 30 13.7909 30 16Z" fill="#6667FA"/>
<path d="M34 14C34 12.8954 34.8954 12 36 12H40C41.1046 12 42 12.8954 42 14V18C42 19.1046 41.1046 20 40 20H36C34.8954 20 34 19.1046 34 18V14Z" fill="#6667FA"/>
</svg>
