<svg width="15" height="16" viewBox="0 0 15 16" fill="none" xmlns="http://www.w3.org/2000/svg">
<mask id="path-1-inside-1_2273_16253" fill="white">
<path d="M10.9 10.1062C10.7813 10.1062 10.6625 10.0624 10.5688 9.96865C10.3875 9.7874 10.3875 9.4874 10.5688 9.30615L11.8375 8.0374L10.5688 6.76865C10.3875 6.5874 10.3875 6.2874 10.5688 6.10615C10.75 5.9249 11.05 5.9249 11.2313 6.10615L12.8313 7.70615C13.0126 7.8874 13.0126 8.1874 12.8313 8.36865L11.2313 9.96865C11.1375 10.0624 11.0188 10.1062 10.9 10.1062Z"/>
</mask>
<path d="M10.9 10.1062C10.7813 10.1062 10.6625 10.0624 10.5688 9.96865C10.3875 9.7874 10.3875 9.4874 10.5688 9.30615L11.8375 8.0374L10.5688 6.76865C10.3875 6.5874 10.3875 6.2874 10.5688 6.10615C10.75 5.9249 11.05 5.9249 11.2313 6.10615L12.8313 7.70615C13.0126 7.8874 13.0126 8.1874 12.8313 8.36865L11.2313 9.96865C11.1375 10.0624 11.0188 10.1062 10.9 10.1062Z" fill="#FF0000"/>
<path d="M10.5688 9.30615L9.86169 8.59904H9.86169L10.5688 9.30615ZM11.8375 8.0374L12.5447 8.74451L13.2518 8.0374L12.5447 7.3303L11.8375 8.0374ZM10.5688 6.76865L11.2759 6.06154L10.5688 6.76865ZM11.2313 6.10615L10.5242 6.81326L10.5242 6.81326L11.2313 6.10615ZM12.8313 7.70615L13.5384 6.99904L13.5384 6.99904L12.8313 7.70615ZM12.8313 8.36865L13.5384 9.07576L13.5384 9.07576L12.8313 8.36865ZM11.2313 9.96865L10.5242 9.26154L10.5242 9.26154L11.2313 9.96865ZM10.9 9.10615C11.0322 9.10615 11.1722 9.15788 11.2759 9.26154L9.86169 10.6758C10.1529 10.9669 10.5304 11.1062 10.9 11.1062V9.10615ZM11.2759 9.26154C11.4852 9.47082 11.4852 9.80398 11.2759 10.0133L9.86169 8.59904C9.28992 9.17082 9.28992 10.104 9.86169 10.6758L11.2759 9.26154ZM11.2759 10.0133L12.5447 8.74451L11.1304 7.33029L9.86169 8.59904L11.2759 10.0133ZM12.5447 7.3303L11.2759 6.06154L9.86169 7.47576L11.1304 8.74451L12.5447 7.3303ZM11.2759 6.06154C11.4852 6.27082 11.4852 6.60398 11.2759 6.81326L9.86169 5.39905C9.28992 5.97082 9.28992 6.90398 9.86169 7.47576L11.2759 6.06154ZM11.2759 6.81326C11.0666 7.02253 10.7335 7.02253 10.5242 6.81326L11.9384 5.39905C11.3666 4.82727 10.4335 4.82727 9.86169 5.39905L11.2759 6.81326ZM10.5242 6.81326L12.1242 8.41326L13.5384 6.99904L11.9384 5.39905L10.5242 6.81326ZM12.1242 8.41326C11.9149 8.20398 11.9149 7.87082 12.1242 7.66154L13.5384 9.07576C14.1102 8.50398 14.1102 7.57082 13.5384 6.99904L12.1242 8.41326ZM12.1242 7.66154L10.5242 9.26154L11.9384 10.6758L13.5384 9.07576L12.1242 7.66154ZM10.5242 9.26154C10.6279 9.15788 10.7679 9.10615 10.9 9.10615V11.1062C11.2697 11.1062 11.6472 10.9669 11.9384 10.6758L10.5242 9.26154Z" fill="#FF0000" mask="url(#path-1-inside-1_2273_16253)"/>
<path d="M12.4563 8.50635H6.1001C5.84385 8.50635 5.63135 8.29385 5.63135 8.0376C5.63135 7.78135 5.84385 7.56885 6.1001 7.56885H12.4563C12.7126 7.56885 12.9251 7.78135 12.9251 8.0376C12.9251 8.29385 12.7126 8.50635 12.4563 8.50635Z" fill="#FF0000"/>
<path d="M7.3501 13.4688C4.13135 13.4688 1.88135 11.2188 1.88135 8C1.88135 4.78125 4.13135 2.53125 7.3501 2.53125C7.60635 2.53125 7.81885 2.74375 7.81885 3C7.81885 3.25625 7.60635 3.46875 7.3501 3.46875C4.68135 3.46875 2.81885 5.33125 2.81885 8C2.81885 10.6687 4.68135 12.5312 7.3501 12.5312C7.60635 12.5312 7.81885 12.7437 7.81885 13C7.81885 13.2563 7.60635 13.4688 7.3501 13.4688Z" fill="#FF0000"/>
</svg>
