<svg width="29" height="45" viewBox="0 0 29 45" fill="none" xmlns="http://www.w3.org/2000/svg">
<path d="M1.128 33.48H2.148L5.304 37.728L8.484 33.48H9.492V42H8.388V35.376L5.316 39.504L2.244 35.376V42H1.128V33.48ZM14.1594 42.12C13.2554 42.12 12.5034 41.82 11.9034 41.22C11.3114 40.612 11.0154 39.872 11.0154 39C11.0154 38.128 11.3114 37.392 11.9034 36.792C12.5034 36.184 13.2554 35.88 14.1594 35.88C15.0554 35.88 15.7994 36.184 16.3914 36.792C16.9914 37.392 17.2914 38.128 17.2914 39C17.2914 39.872 16.9914 40.612 16.3914 41.22C15.7994 41.82 15.0554 42.12 14.1594 42.12ZM12.6474 40.536C13.0394 40.952 13.5434 41.16 14.1594 41.16C14.7754 41.16 15.2754 40.952 15.6594 40.536C16.0434 40.12 16.2354 39.608 16.2354 39C16.2354 38.392 16.0434 37.88 15.6594 37.464C15.2754 37.048 14.7754 36.84 14.1594 36.84C13.5434 36.84 13.0394 37.048 12.6474 37.464C12.2634 37.88 12.0714 38.392 12.0714 39C12.0714 39.608 12.2634 40.12 12.6474 40.536ZM18.7728 42V36H19.8048V37.164C19.9168 36.796 20.1328 36.5 20.4528 36.276C20.7808 36.052 21.1248 35.94 21.4848 35.94C21.6608 35.94 21.8168 35.956 21.9528 35.988V37.056C21.8088 36.992 21.6208 36.96 21.3888 36.96C20.9728 36.96 20.6048 37.14 20.2848 37.5C19.9648 37.86 19.8048 38.368 19.8048 39.024V42H18.7728ZM25.5124 42.12C24.6404 42.12 23.9164 41.824 23.3404 41.232C22.7724 40.64 22.4884 39.896 22.4884 39C22.4884 38.096 22.7644 37.352 23.3164 36.768C23.8764 36.176 24.6164 35.88 25.5364 35.88C26.4644 35.88 27.1924 36.208 27.7204 36.864C28.2484 37.52 28.4804 38.324 28.4164 39.276H23.5324C23.5484 39.82 23.7484 40.276 24.1324 40.644C24.5164 41.004 24.9804 41.184 25.5244 41.184C26.3404 41.184 26.9204 40.848 27.2644 40.176H28.3204C28.1684 40.736 27.8444 41.2 27.3484 41.568C26.8524 41.936 26.2404 42.12 25.5124 42.12ZM26.6884 37.224C26.3604 36.936 25.9644 36.792 25.5004 36.792C25.0364 36.792 24.6204 36.932 24.2524 37.212C23.8924 37.492 23.6684 37.908 23.5804 38.46H27.3244C27.2284 37.916 27.0164 37.504 26.6884 37.224Z" fill="#0D062D" fill-opacity="0.7"/>
<path d="M14 22.75C8.07 22.75 3.25 17.93 3.25 12C3.25 6.07 8.07 1.25 14 1.25C19.93 1.25 24.75 6.07 24.75 12C24.75 17.93 19.93 22.75 14 22.75ZM14 2.75C8.9 2.75 4.75 6.9 4.75 12C4.75 17.1 8.9 21.25 14 21.25C19.1 21.25 23.25 17.1 23.25 12C23.25 6.9 19.1 2.75 14 2.75Z" fill="#0D062D"/>
<path d="M14 13C13.44 13 13 12.55 13 12C13 11.45 13.45 11 14 11C14.55 11 15 11.45 15 12C15 12.55 14.56 13 14 13Z" fill="#0D062D"/>
<path d="M18 13C17.44 13 17 12.55 17 12C17 11.45 17.45 11 18 11C18.55 11 19 11.45 19 12C19 12.55 18.56 13 18 13Z" fill="#0D062D"/>
<path d="M10 13C9.44 13 9 12.55 9 12C9 11.45 9.45 11 10 11C10.55 11 11 11.45 11 12C11 12.55 10.56 13 10 13Z" fill="#0D062D"/>
</svg>
