<svg width="42" height="43" viewBox="0 0 42 43" fill="none" xmlns="http://www.w3.org/2000/svg">
<path d="M16.5 6.25C16.0858 6.25 15.75 6.58579 15.75 7C15.75 7.41421 16.0858 7.75 16.5 7.75V6.25ZM24.5 7.75C24.9142 7.75 25.25 7.41421 25.25 7C25.25 6.58579 24.9142 6.25 24.5 6.25V7.75ZM16.5 10.25C16.0858 10.25 15.75 10.5858 15.75 11C15.75 11.4142 16.0858 11.75 16.5 11.75V10.25ZM20.5 11.75C20.9142 11.75 21.25 11.4142 21.25 11C21.25 10.5858 20.9142 10.25 20.5 10.25V11.75ZM15.5 16.75H28.5V15.25H15.5V16.75ZM25.5 21.25H15.5V22.75H25.5V21.25ZM15.5 21.25C14.2574 21.25 13.25 20.2426 13.25 19H11.75C11.75 21.0711 13.4289 22.75 15.5 22.75V21.25ZM25.5 22.75C27.5711 22.75 29.25 21.0711 29.25 19H27.75C27.75 20.2426 26.7426 21.25 25.5 21.25V22.75ZM15.5 15.25C13.4289 15.25 11.75 16.9289 11.75 19H13.25C13.25 17.7574 14.2574 16.75 15.5 16.75V15.25ZM15.5 2.75H25.5V1.25H15.5V2.75ZM27.75 5V19H29.25V5H27.75ZM13.25 19V5H11.75V19H13.25ZM25.5 2.75C26.7426 2.75 27.75 3.75736 27.75 5H29.25C29.25 2.92893 27.5711 1.25 25.5 1.25V2.75ZM15.5 1.25C13.4289 1.25 11.75 2.92893 11.75 5H13.25C13.25 3.75736 14.2574 2.75 15.5 2.75V1.25ZM16.5 7.75H24.5V6.25H16.5V7.75ZM16.5 11.75H20.5V10.25H16.5V11.75Z" fill="#0D062D"/>
<path d="M8.944 39.088C9.88 39.088 10.66 38.764 11.284 38.116C11.916 37.468 12.232 36.676 12.232 35.74C12.232 34.804 11.916 34.012 11.284 33.364C10.66 32.716 9.88 32.392 8.944 32.392C8.016 32.392 7.236 32.716 6.604 33.364C5.98 34.012 5.668 34.804 5.668 35.74C5.668 36.676 5.98 37.468 6.604 38.116C7.236 38.764 8.016 39.088 8.944 39.088ZM8.944 40.144C7.72 40.144 6.68 39.72 5.824 38.872C4.968 38.016 4.54 36.972 4.54 35.74C4.54 34.508 4.968 33.468 5.824 32.62C6.68 31.764 7.72 31.336 8.944 31.336C10.176 31.336 11.216 31.764 12.064 32.62C12.92 33.468 13.348 34.508 13.348 35.74C13.348 36.972 12.92 38.016 12.064 38.872C11.216 39.72 10.176 40.144 8.944 40.144ZM14.8626 40V34H15.8946V35.164C16.0066 34.796 16.2226 34.5 16.5426 34.276C16.8706 34.052 17.2146 33.94 17.5746 33.94C17.7506 33.94 17.9066 33.956 18.0426 33.988V35.056C17.8986 34.992 17.7106 34.96 17.4786 34.96C17.0626 34.96 16.6946 35.14 16.3746 35.5C16.0546 35.86 15.8946 36.368 15.8946 37.024V40H14.8626ZM21.5299 40.12C20.6979 40.12 19.9979 39.816 19.4299 39.208C18.8699 38.6 18.5899 37.864 18.5899 37C18.5899 36.136 18.8699 35.4 19.4299 34.792C19.9979 34.184 20.6979 33.88 21.5299 33.88C21.9699 33.88 22.3779 33.98 22.7539 34.18C23.1379 34.372 23.4339 34.62 23.6419 34.924V31H24.6739V40H23.6419V39.076C23.4339 39.38 23.1379 39.632 22.7539 39.832C22.3779 40.024 21.9699 40.12 21.5299 40.12ZM21.6859 39.172C22.2779 39.172 22.7659 38.964 23.1499 38.548C23.5339 38.132 23.7259 37.616 23.7259 37C23.7259 36.384 23.5339 35.868 23.1499 35.452C22.7659 35.036 22.2779 34.828 21.6859 34.828C21.0859 34.828 20.5939 35.036 20.2099 35.452C19.8259 35.868 19.6339 36.384 19.6339 37C19.6339 37.616 19.8259 38.132 20.2099 38.548C20.5939 38.964 21.0859 39.172 21.6859 39.172ZM29.1725 40.12C28.3005 40.12 27.5765 39.824 27.0005 39.232C26.4325 38.64 26.1485 37.896 26.1485 37C26.1485 36.096 26.4245 35.352 26.9765 34.768C27.5365 34.176 28.2765 33.88 29.1965 33.88C30.1245 33.88 30.8525 34.208 31.3805 34.864C31.9085 35.52 32.1405 36.324 32.0765 37.276H27.1925C27.2085 37.82 27.4085 38.276 27.7925 38.644C28.1765 39.004 28.6405 39.184 29.1845 39.184C30.0005 39.184 30.5805 38.848 30.9245 38.176H31.9805C31.8285 38.736 31.5045 39.2 31.0085 39.568C30.5125 39.936 29.9005 40.12 29.1725 40.12ZM30.3485 35.224C30.0205 34.936 29.6245 34.792 29.1605 34.792C28.6965 34.792 28.2805 34.932 27.9125 35.212C27.5525 35.492 27.3285 35.908 27.2405 36.46H30.9845C30.8885 35.916 30.6765 35.504 30.3485 35.224ZM33.5658 40V34H34.5978V35.164C34.7098 34.796 34.9258 34.5 35.2458 34.276C35.5738 34.052 35.9178 33.94 36.2778 33.94C36.4538 33.94 36.6098 33.956 36.7458 33.988V35.056C36.6018 34.992 36.4138 34.96 36.1818 34.96C35.7658 34.96 35.3978 35.14 35.0778 35.5C34.7578 35.86 34.5978 36.368 34.5978 37.024V40H33.5658ZM39.7868 40.12C39.1148 40.12 38.5508 39.956 38.0948 39.628C37.6468 39.3 37.3988 38.844 37.3508 38.26H38.4068C38.4708 38.596 38.6308 38.844 38.8868 39.004C39.1508 39.164 39.4548 39.244 39.7988 39.244C40.1428 39.244 40.4188 39.176 40.6268 39.04C40.8428 38.904 40.9508 38.708 40.9508 38.452C40.9508 38.212 40.8708 38.016 40.7108 37.864C40.5588 37.712 40.3068 37.588 39.9548 37.492L39.0908 37.264C38.0588 36.992 37.5428 36.404 37.5428 35.5C37.5428 35.012 37.7348 34.62 38.1188 34.324C38.5108 34.028 39.0108 33.88 39.6188 33.88C40.2348 33.88 40.7388 34.044 41.1308 34.372C41.5308 34.692 41.7548 35.1 41.8028 35.596H40.7708C40.6908 35.332 40.5468 35.124 40.3388 34.972C40.1388 34.82 39.8988 34.744 39.6188 34.744C39.3228 34.744 39.0748 34.812 38.8748 34.948C38.6828 35.084 38.5868 35.264 38.5868 35.488C38.5868 35.704 38.6588 35.88 38.8028 36.016C38.9468 36.152 39.1788 36.264 39.4988 36.352L40.4588 36.604C41.4828 36.86 41.9948 37.452 41.9948 38.38C41.9948 38.956 41.7908 39.392 41.3828 39.688C40.9748 39.976 40.4428 40.12 39.7868 40.12Z" fill="#0D062D" fill-opacity="0.7"/>
</svg>
