<svg width="20" height="20" viewBox="0 0 20 20" fill="none" xmlns="http://www.w3.org/2000/svg">
<path fill-rule="evenodd" clip-rule="evenodd" d="M18.3332 10C18.3332 14.6024 14.6022 18.3334 9.99984 18.3334C5.39747 18.3334 1.6665 14.6024 1.6665 10C1.6665 5.39765 5.39747 1.66669 9.99984 1.66669C14.6022 1.66669 18.3332 5.39765 18.3332 10ZM12.7988 12.7989C12.5547 13.043 12.159 13.043 11.9149 12.7989L9.99985 10.8839L8.08475 12.7989C7.84068 13.043 7.44495 13.043 7.20087 12.7989C6.95679 12.5549 6.95679 12.1591 7.20087 11.9151L9.11596 9.99997L7.20088 8.08489C6.95681 7.84081 6.95681 7.44509 7.20088 7.20101C7.44496 6.95693 7.84069 6.95693 8.08477 7.20101L9.99985 9.11609L11.9149 7.20101C12.159 6.95694 12.5547 6.95694 12.7988 7.20102C13.0429 7.44509 13.0429 7.84082 12.7988 8.0849L10.8837 9.99997L12.7988 11.9151C13.0429 12.1591 13.0429 12.5549 12.7988 12.7989Z" fill="#82898F"/>
</svg>
