<svg width="47" height="45" viewBox="0 0 47 45" fill="none" xmlns="http://www.w3.org/2000/svg">
<path d="M13.764 42L11.676 36.216L9.6 42H8.604L6.276 33.48H7.44L9.216 40.128L11.676 33.336L14.136 40.128L15.924 33.48H17.088L14.76 42H13.764ZM20.4713 42.12C19.6393 42.12 18.9393 41.816 18.3713 41.208C17.8113 40.6 17.5313 39.864 17.5313 39C17.5313 38.136 17.8113 37.4 18.3713 36.792C18.9393 36.184 19.6393 35.88 20.4713 35.88C20.9113 35.88 21.3193 35.98 21.6953 36.18C22.0793 36.372 22.3753 36.62 22.5833 36.924V36H23.6153V42H22.5833V41.076C22.3753 41.38 22.0793 41.632 21.6953 41.832C21.3193 42.024 20.9113 42.12 20.4713 42.12ZM20.6273 41.172C21.2193 41.172 21.7073 40.964 22.0913 40.548C22.4753 40.132 22.6673 39.616 22.6673 39C22.6673 38.384 22.4753 37.868 22.0913 37.452C21.7073 37.036 21.2193 36.828 20.6273 36.828C20.0273 36.828 19.5353 37.036 19.1513 37.452C18.7673 37.868 18.5753 38.384 18.5753 39C18.5753 39.616 18.7673 40.132 19.1513 40.548C19.5353 40.964 20.0273 41.172 20.6273 41.172ZM25.5579 42V33H26.5899V42H25.5579ZM28.5462 42V33H29.5782V42H28.5462ZM34.0905 42.12C33.2185 42.12 32.4945 41.824 31.9185 41.232C31.3505 40.64 31.0665 39.896 31.0665 39C31.0665 38.096 31.3425 37.352 31.8945 36.768C32.4545 36.176 33.1945 35.88 34.1145 35.88C35.0425 35.88 35.7705 36.208 36.2985 36.864C36.8265 37.52 37.0585 38.324 36.9945 39.276H32.1105C32.1265 39.82 32.3265 40.276 32.7105 40.644C33.0945 41.004 33.5585 41.184 34.1025 41.184C34.9185 41.184 35.4985 40.848 35.8425 40.176H36.8985C36.7465 40.736 36.4225 41.2 35.9265 41.568C35.4305 41.936 34.8185 42.12 34.0905 42.12ZM35.2665 37.224C34.9385 36.936 34.5425 36.792 34.0785 36.792C33.6145 36.792 33.1985 36.932 32.8305 37.212C32.4705 37.492 32.2465 37.908 32.1585 38.46H35.9025C35.8065 37.916 35.5945 37.504 35.2665 37.224ZM40.7297 42.06C40.1777 42.06 39.7337 41.904 39.3977 41.592C39.0617 41.28 38.8937 40.824 38.8937 40.224V36.948H37.6217V36H38.8937V34.332H39.9257V36H41.6537V36.948H39.9257V40.092C39.9257 40.468 40.0057 40.732 40.1657 40.884C40.3257 41.036 40.5777 41.112 40.9217 41.112C41.2257 41.112 41.4697 41.072 41.6537 40.992V41.916C41.3657 42.012 41.0577 42.06 40.7297 42.06Z" fill="#0D062D" fill-opacity="0.7"/>
<path d="M24 11.8999H18C17.59 11.8999 17.25 11.5599 17.25 11.1499C17.25 10.7399 17.59 10.3999 18 10.3999H24C24.41 10.3999 24.75 10.7399 24.75 11.1499C24.75 11.5599 24.41 11.8999 24 11.8999Z" fill="#0D062D"/>
<path d="M13 11.8998C12.59 11.8998 12.25 11.5598 12.25 11.1498V6.52985C12.25 4.07985 14.24 2.08984 16.69 2.08984H22.31C24.88 2.08984 26.75 3.79984 26.75 6.14984C26.75 6.55984 26.41 6.89984 26 6.89984C25.59 6.89984 25.25 6.55984 25.25 6.14984C25.25 4.38984 23.72 3.58984 22.31 3.58984H16.69C15.07 3.58984 13.75 4.90985 13.75 6.52985V11.1498C13.75 11.5698 13.41 11.8998 13 11.8998Z" fill="#0D062D"/>
<path d="M27 21.8999H17C14.38 21.8999 12.25 19.7699 12.25 17.1499V10.1499C12.25 7.5299 14.38 5.3999 17 5.3999H27C29.62 5.3999 31.75 7.5299 31.75 10.1499V11.5999C31.75 12.0099 31.41 12.3499 31 12.3499H29.92C29.57 12.3499 29.25 12.4798 29.02 12.7198L29.01 12.7299C28.68 13.0599 28.55 13.5198 28.67 13.9698C28.82 14.5298 29.41 14.9399 30.07 14.9399H31C31.41 14.9399 31.75 15.2799 31.75 15.6899V17.1399C31.75 19.7699 29.62 21.8999 27 21.8999ZM17 6.8999C15.21 6.8999 13.75 8.3599 13.75 10.1499V17.1499C13.75 18.9399 15.21 20.3999 17 20.3999H27C28.79 20.3999 30.25 18.9399 30.25 17.1499V16.4499H30.07C28.72 16.4499 27.55 15.5999 27.22 14.3699C26.96 13.3999 27.24 12.3699 27.95 11.6699C28.47 11.1399 29.17 10.8499 29.92 10.8499H30.25V10.1499C30.25 8.3599 28.79 6.8999 27 6.8999H17Z" fill="#0D062D"/>
<path d="M31.9699 16.4501H30.0399C28.5299 16.4501 27.2499 15.3301 27.1299 13.8901C27.0499 13.0601 27.3499 12.2501 27.9499 11.6601C28.4499 11.1401 29.1599 10.8501 29.9099 10.8501H31.9599C32.9399 10.8501 33.7399 11.6401 33.7399 12.6201V14.6801C33.7499 15.6601 32.9499 16.4501 31.9699 16.4501ZM29.9199 12.3501C29.5699 12.3501 29.2499 12.4801 29.0199 12.7201C28.7299 13.0001 28.5899 13.3801 28.6299 13.7601C28.6799 14.4201 29.3199 14.9501 30.0399 14.9501H31.9699C32.1199 14.9501 32.2499 14.8301 32.2499 14.6801V12.6201C32.2499 12.4701 32.1199 12.3501 31.9699 12.3501H29.9199Z" fill="#0D062D"/>
</svg>
